<svg width="366" height="45" viewBox="0 0 366 45" fill="none" xmlns="http://www.w3.org/2000/svg">
<path d="M39.3223 24.1829L27.7179 35.7872C25.7653 37.7399 22.5994 37.7399 20.6468 35.7872L18.2554 33.3959C16.3028 31.4432 16.3028 28.2774 18.2555 26.3248L29.8598 14.7204L39.3223 24.1829Z" fill="#F7DF1E"/>
<path d="M29.8599 14.7205L41.4642 26.3248C43.4169 28.2775 43.4169 31.4433 41.4642 33.3959L39.0729 35.7873C37.1202 37.7399 33.9544 37.7399 32.0018 35.7873L20.3974 24.1829L29.8599 14.7205Z" fill="#F7DF1E"/>
<path d="M20.8179 24.6023L9.2135 12.9979C7.26087 11.0453 7.26088 7.87948 9.2135 5.92685L11.6049 3.53548C13.5575 1.58285 16.7233 1.58286 18.6759 3.53548L30.2803 15.1399L20.8179 24.6023Z" fill="#264DE4"/>
<path d="M30.2798 15.1398L18.6754 26.7441C16.7228 28.6968 13.557 28.6968 11.6043 26.7441L9.21297 24.3528C7.26035 22.4001 7.26035 19.2343 9.21297 17.2817L20.8173 5.67733L30.2798 15.1398Z" fill="#264DE4"/>
<path d="M38.9028 5.67773L50.5072 17.2821C52.4598 19.2347 52.4598 22.4006 50.5072 24.3532L48.1158 26.7446C46.1632 28.6972 42.9974 28.6972 41.0448 26.7445L29.4404 15.1402L38.9028 5.67773Z" fill="#E34C26"/>
<path d="M29.4409 15.1401L41.0453 3.53576C42.9979 1.58314 46.1637 1.58314 48.1164 3.53576L50.5077 5.92714C52.4604 7.87976 52.4604 11.0456 50.5077 12.9982L38.9034 24.6026L29.4409 15.1401Z" fill="#E34C26"/>
<circle cx="30.2797" cy="15.5599" r="2.67638" transform="rotate(180 30.2797 15.5599)" fill="#53C1DE"/>
<path d="M73.8807 35.4321C72.1767 35.4321 70.5807 35.1561 69.0927 34.6041C67.6047 34.0521 66.3327 33.4161 65.2767 32.6961L66.6447 30.7521C67.6527 31.4721 68.7687 32.0481 69.9927 32.4801C71.2167 32.9121 72.6327 33.1281 74.2407 33.1281C75.7287 33.1281 76.8327 32.8521 77.5527 32.3001C78.2967 31.7481 78.6687 31.1121 78.6687 30.3921C78.6687 30.0561 78.5967 29.7441 78.4527 29.4561C78.3327 29.1681 78.0807 28.8921 77.6967 28.6281C77.3367 28.3641 76.7967 28.1121 76.0767 27.8721C75.3567 27.6321 74.3967 27.3921 73.1967 27.1521C70.9167 26.6721 69.2007 26.0241 68.0487 25.2081C66.9207 24.3921 66.3567 23.3361 66.3567 22.0401C66.3567 20.6241 66.9687 19.4481 68.1927 18.5121C69.4167 17.5521 71.2287 17.0721 73.6287 17.0721C74.9727 17.0721 76.2687 17.3001 77.5167 17.7561C78.7647 18.1881 79.8207 18.7041 80.6847 19.3041L79.2447 21.2121C78.4527 20.6361 77.5527 20.1921 76.5447 19.8801C75.5367 19.5441 74.4807 19.3761 73.3767 19.3761C72.3687 19.3761 71.5647 19.4961 70.9647 19.7361C70.3887 19.9521 69.9687 20.2521 69.7047 20.6361C69.4647 21.0201 69.3447 21.4401 69.3447 21.8961C69.3447 22.6401 69.7407 23.2281 70.5327 23.6601C71.3487 24.0681 72.6447 24.4521 74.4207 24.8121C76.3647 25.2201 77.8527 25.6761 78.8847 26.1801C79.9407 26.6841 80.6607 27.2601 81.0447 27.9081C81.4527 28.5561 81.6567 29.3241 81.6567 30.2121C81.6567 31.1721 81.3567 32.0481 80.7567 32.8401C80.1567 33.6081 79.2807 34.2321 78.1287 34.7121C76.9767 35.1921 75.5607 35.4321 73.8807 35.4321ZM96.7626 35.4321C94.9386 35.4321 93.2946 35.0721 91.8306 34.3521C90.3906 33.6321 89.2506 32.5881 88.4106 31.2201C87.5946 29.8521 87.1866 28.2081 87.1866 26.2881C87.1866 24.3201 87.6306 22.6521 88.5186 21.2841C89.4066 19.9161 90.5826 18.8721 92.0466 18.1521C93.5346 17.4321 95.1666 17.0721 96.9426 17.0721C98.3826 17.0721 99.6186 17.3241 100.651 17.8281C101.707 18.3321 102.595 18.9321 103.315 19.6281L101.839 21.5361C101.119 20.9121 100.375 20.4201 99.6066 20.0601C98.8386 19.7001 97.9866 19.5201 97.0506 19.5201C95.7066 19.5201 94.5186 19.8081 93.4866 20.3841C92.4546 20.9361 91.6506 21.7281 91.0746 22.7601C90.5226 23.7681 90.2466 24.9441 90.2466 26.2881C90.2466 27.6081 90.5226 28.7721 91.0746 29.7801C91.6266 30.7881 92.4066 31.5801 93.4146 32.1561C94.4466 32.7081 95.6346 32.9841 96.9786 32.9841C98.0586 32.9841 99.0426 32.7681 99.9306 32.3361C100.843 31.9041 101.659 31.3881 102.379 30.7881L103.711 32.6961C102.751 33.5601 101.671 34.2321 100.471 34.7121C99.2946 35.1921 98.0586 35.4321 96.7626 35.4321ZM111.149 35.0001V17.5041H113.597L113.849 21.6441H113.957C114.869 20.2281 115.997 19.1121 117.341 18.2961C118.685 17.4801 120.161 17.0721 121.769 17.0721C122.417 17.0721 123.017 17.1321 123.569 17.2521C124.145 17.3481 124.697 17.5281 125.225 17.7921L124.541 20.3481C123.941 20.1321 123.425 19.9761 122.993 19.8801C122.561 19.7841 121.997 19.7361 121.301 19.7361C119.981 19.7361 118.709 20.1201 117.485 20.8881C116.285 21.6321 115.157 22.9161 114.101 24.7401V35.0001H111.149ZM136.335 35.4321C135.255 35.4321 134.259 35.2401 133.347 34.8561C132.435 34.4481 131.715 33.8721 131.187 33.1281C130.659 32.3841 130.395 31.4961 130.395 30.4641C130.395 28.4961 131.379 27.0081 133.347 26.0001C135.315 24.9681 138.555 24.2721 143.067 23.9121C143.043 23.1201 142.875 22.3881 142.563 21.7161C142.275 21.0441 141.795 20.5161 141.123 20.1321C140.451 19.7241 139.551 19.5201 138.423 19.5201C137.679 19.5201 136.935 19.6281 136.191 19.8441C135.471 20.0361 134.775 20.3001 134.103 20.6361C133.455 20.9481 132.855 21.2721 132.303 21.6081L131.151 19.5921C131.727 19.2081 132.423 18.8241 133.239 18.4401C134.079 18.0321 134.979 17.7081 135.939 17.4681C136.899 17.2041 137.895 17.0721 138.927 17.0721C140.535 17.0721 141.855 17.3721 142.887 17.9721C143.943 18.5721 144.723 19.4121 145.227 20.4921C145.755 21.5481 146.019 22.8081 146.019 24.2721V35.0001H143.607L143.355 32.6241H143.247C142.287 33.3921 141.207 34.0521 140.007 34.6041C138.807 35.1561 137.583 35.4321 136.335 35.4321ZM137.127 33.0561C138.135 33.0561 139.131 32.8281 140.115 32.3721C141.099 31.9161 142.083 31.2801 143.067 30.4641V25.8561C140.571 26.0721 138.603 26.3721 137.163 26.7561C135.747 27.1401 134.739 27.6321 134.139 28.2321C133.563 28.8081 133.275 29.4801 133.275 30.2481C133.275 30.8961 133.455 31.4361 133.815 31.8681C134.175 32.2761 134.643 32.5761 135.219 32.7681C135.819 32.9601 136.455 33.0561 137.127 33.0561ZM163.248 35.4321C161.544 35.4321 160.2 35.1321 159.216 34.5321C158.232 33.9081 157.524 33.0561 157.092 31.9761C156.684 30.8961 156.48 29.6361 156.48 28.1961V19.9161H151.548V17.6841L156.588 17.5041L156.984 11.8881H159.432V17.5041H168.036V19.9161H159.432V28.2321C159.432 29.2641 159.564 30.1401 159.828 30.8601C160.092 31.5801 160.548 32.1201 161.196 32.4801C161.844 32.8401 162.732 33.0201 163.86 33.0201C164.7 33.0201 165.456 32.9481 166.128 32.8041C166.8 32.6601 167.448 32.4681 168.072 32.2281L168.72 34.3881C167.928 34.6761 167.088 34.9161 166.2 35.1081C165.336 35.3241 164.352 35.4321 163.248 35.4321ZM183.106 35.4321C181.282 35.4321 179.638 35.0721 178.174 34.3521C176.734 33.6321 175.594 32.5881 174.754 31.2201C173.938 29.8521 173.53 28.2081 173.53 26.2881C173.53 24.3201 173.974 22.6521 174.862 21.2841C175.75 19.9161 176.926 18.8721 178.39 18.1521C179.878 17.4321 181.51 17.0721 183.286 17.0721C184.726 17.0721 185.962 17.3241 186.994 17.8281C188.05 18.3321 188.938 18.9321 189.658 19.6281L188.182 21.5361C187.462 20.9121 186.718 20.4201 185.95 20.0601C185.182 19.7001 184.33 19.5201 183.394 19.5201C182.05 19.5201 180.862 19.8081 179.83 20.3841C178.798 20.9361 177.994 21.7281 177.418 22.7601C176.866 23.7681 176.59 24.9441 176.59 26.2881C176.59 27.6081 176.866 28.7721 177.418 29.7801C177.97 30.7881 178.75 31.5801 179.758 32.1561C180.79 32.7081 181.978 32.9841 183.322 32.9841C184.402 32.9841 185.386 32.7681 186.274 32.3361C187.186 31.9041 188.002 31.3881 188.722 30.7881L190.054 32.6961C189.094 33.5601 188.014 34.2321 186.814 34.7121C185.638 35.1921 184.402 35.4321 183.106 35.4321ZM195.584 35.0001V9.36812H198.536V16.3521L198.356 20.4921H198.464C199.352 19.5321 200.324 18.7281 201.38 18.0801C202.436 17.4081 203.648 17.0721 205.016 17.0721C207.08 17.0721 208.604 17.6721 209.588 18.8721C210.572 20.0721 211.064 21.8241 211.064 24.1281V35.0001H208.112V24.5241C208.112 22.8681 207.8 21.6441 207.176 20.8521C206.552 20.0361 205.52 19.6281 204.08 19.6281C203.048 19.6281 202.124 19.8921 201.308 20.4201C200.492 20.9481 199.568 21.7401 198.536 22.7961V35.0001H195.584ZM223.11 35.0001V13.9041H215.334V11.3841H233.91V13.9041H226.134V35.0001H223.11ZM246.208 35.4321C244.672 35.4321 243.244 35.0721 241.924 34.3521C240.628 33.6321 239.572 32.5881 238.756 31.2201C237.964 29.8521 237.568 28.2081 237.568 26.2881C237.568 24.3201 237.964 22.6521 238.756 21.2841C239.572 19.9161 240.628 18.8721 241.924 18.1521C243.244 17.4321 244.672 17.0721 246.208 17.0721C247.744 17.0721 249.16 17.4321 250.456 18.1521C251.776 18.8721 252.832 19.9161 253.624 21.2841C254.44 22.6521 254.848 24.3201 254.848 26.2881C254.848 28.2081 254.44 29.8521 253.624 31.2201C252.832 32.5881 251.776 33.6321 250.456 34.3521C249.16 35.0721 247.744 35.4321 246.208 35.4321ZM246.208 32.9841C247.336 32.9841 248.32 32.7081 249.16 32.1561C250 31.5801 250.648 30.7881 251.104 29.7801C251.56 28.7721 251.788 27.6081 251.788 26.2881C251.788 24.9441 251.56 23.7681 251.104 22.7601C250.648 21.7281 250 20.9361 249.16 20.3841C248.32 19.8081 247.336 19.5201 246.208 19.5201C245.08 19.5201 244.096 19.8081 243.256 20.3841C242.44 20.9361 241.792 21.7281 241.312 22.7601C240.856 23.7681 240.628 24.9441 240.628 26.2881C240.628 27.6081 240.856 28.7721 241.312 29.7801C241.792 30.7881 242.44 31.5801 243.256 32.1561C244.096 32.7081 245.08 32.9841 246.208 32.9841ZM259.514 35.0001V11.5281H267.83C269.486 11.5281 270.998 11.7561 272.366 12.2121C273.734 12.6441 274.826 13.4001 275.642 14.4801C276.482 15.5361 276.902 16.9881 276.902 18.8361C276.902 20.6361 276.482 22.1001 275.642 23.2281C274.826 24.3561 273.734 25.1961 272.366 25.7481C270.998 26.2761 269.486 26.5401 267.83 26.5401H264.806V35.0001H259.514ZM264.806 22.3281H267.398C268.79 22.3281 269.846 22.0401 270.566 21.4641C271.31 20.8641 271.682 19.9881 271.682 18.8361C271.682 17.6841 271.31 16.8801 270.566 16.4241C269.846 15.9681 268.79 15.7401 267.398 15.7401H264.806V22.3281ZM266.858 25.1721L270.53 21.7521L278.018 35.0001H272.078L266.858 25.1721ZM290.46 35.4321C288.612 35.4321 286.932 35.0721 285.42 34.3521C283.932 33.6081 282.744 32.5401 281.856 31.1481C280.992 29.7321 280.56 28.0401 280.56 26.0721C280.56 24.1281 281.004 22.4601 281.892 21.0681C282.78 19.6521 283.932 18.5721 285.348 17.8281C286.764 17.0841 288.264 16.7121 289.848 16.7121C291.696 16.7121 293.244 17.0961 294.492 17.8641C295.74 18.6081 296.676 19.6281 297.3 20.9241C297.948 22.1961 298.272 23.6481 298.272 25.2801C298.272 25.7601 298.236 26.2281 298.164 26.6841C298.116 27.1161 298.068 27.4401 298.02 27.6561H284.484V24.0921H294.456L293.628 25.1001C293.628 23.6601 293.316 22.5801 292.692 21.8601C292.092 21.1161 291.204 20.7441 290.028 20.7441C289.164 20.7441 288.408 20.9361 287.76 21.3201C287.112 21.7041 286.608 22.2921 286.248 23.0841C285.888 23.8761 285.708 24.8721 285.708 26.0721C285.708 27.2961 285.924 28.3041 286.356 29.0961C286.788 29.8641 287.412 30.4401 288.228 30.8241C289.044 31.2081 290.028 31.4001 291.18 31.4001C291.996 31.4001 292.764 31.2921 293.484 31.0761C294.228 30.8601 294.996 30.5481 295.788 30.1401L297.552 33.3441C296.52 33.9921 295.38 34.5081 294.132 34.8921C292.884 35.2521 291.66 35.4321 290.46 35.4321ZM308.23 35.4321C307.03 35.4321 305.986 35.1921 305.098 34.7121C304.234 34.2321 303.562 33.5841 303.082 32.7681C302.602 31.9521 302.362 31.0401 302.362 30.0321C302.362 28.0401 303.262 26.5161 305.062 25.4601C306.886 24.4041 309.91 23.7561 314.134 23.5161C314.062 22.9641 313.882 22.4961 313.594 22.1121C313.306 21.7281 312.886 21.4401 312.334 21.2481C311.806 21.0321 311.134 20.9241 310.318 20.9241C309.742 20.9241 309.166 20.9961 308.59 21.1401C308.014 21.2601 307.414 21.4521 306.79 21.7161C306.19 21.9561 305.554 22.2441 304.882 22.5801L303.01 19.1241C303.826 18.6441 304.678 18.2241 305.566 17.8641C306.478 17.5041 307.414 17.2281 308.374 17.0361C309.358 16.8201 310.354 16.7121 311.362 16.7121C313.042 16.7121 314.482 17.0121 315.682 17.6121C316.882 18.1881 317.806 19.0761 318.454 20.2761C319.102 21.4521 319.426 22.9521 319.426 24.7761V35.0001H315.106L314.71 32.9841H314.566C313.678 33.6561 312.694 34.2321 311.614 34.7121C310.534 35.1921 309.406 35.4321 308.23 35.4321ZM309.922 31.3281C310.714 31.3281 311.458 31.1721 312.154 30.8601C312.85 30.5241 313.51 30.1161 314.134 29.6361V26.6841C312.382 26.7801 311.014 26.9601 310.03 27.2241C309.07 27.4881 308.398 27.8241 308.014 28.2321C307.63 28.6401 307.438 29.1081 307.438 29.6361C307.438 29.9961 307.534 30.3081 307.726 30.5721C307.942 30.8361 308.23 31.0281 308.59 31.1481C308.974 31.2681 309.418 31.3281 309.922 31.3281ZM334.1 35.4321C332.228 35.4321 330.536 35.0721 329.024 34.3521C327.536 33.6081 326.348 32.5401 325.46 31.1481C324.596 29.7321 324.164 28.0401 324.164 26.0721C324.164 24.1041 324.644 22.4241 325.604 21.0321C326.564 19.6161 327.824 18.5481 329.384 17.8281C330.968 17.0841 332.672 16.7121 334.496 16.7121C335.912 16.7121 337.196 16.9401 338.348 17.3961C339.5 17.8281 340.448 18.4041 341.192 19.1241L338.744 22.4001C338.048 21.9201 337.376 21.5721 336.728 21.3561C336.104 21.1161 335.456 20.9961 334.784 20.9961C333.776 20.9961 332.876 21.2001 332.084 21.6081C331.292 22.0161 330.68 22.6041 330.248 23.3721C329.816 24.1401 329.6 25.0401 329.6 26.0721C329.6 27.1041 329.804 28.0041 330.212 28.7721C330.644 29.5401 331.232 30.1281 331.976 30.5361C332.744 30.9441 333.62 31.1481 334.604 31.1481C335.54 31.1481 336.392 30.9801 337.16 30.6441C337.952 30.3081 338.672 29.9121 339.32 29.4561L341.444 32.8041C340.388 33.6921 339.2 34.3521 337.88 34.7841C336.584 35.2161 335.324 35.4321 334.1 35.4321ZM357.306 35.4321C355.41 35.4321 353.898 35.1081 352.77 34.4601C351.666 33.7881 350.862 32.8641 350.358 31.6881C349.854 30.5121 349.602 29.1441 349.602 27.5841V21.2841H345.138V17.3601L349.854 17.1441L350.538 11.6721H354.894V17.1441H362.454V21.2841H354.894V27.5481C354.894 28.4361 355.026 29.1561 355.29 29.7081C355.554 30.2601 355.962 30.6681 356.514 30.9321C357.066 31.1721 357.774 31.2921 358.638 31.2921C359.334 31.2921 359.97 31.2321 360.546 31.1121C361.122 30.9921 361.674 30.8361 362.202 30.6441L363.138 34.4601C362.346 34.7001 361.47 34.9161 360.51 35.1081C359.574 35.3241 358.506 35.4321 357.306 35.4321Z" fill="black"/>
</svg>
