<svg width="1185" height="760" viewBox="0 0 1185 760" fill="none" xmlns="http://www.w3.org/2000/svg">
<rect width="1185" height="760" fill="url(#paint0_linear_90_78)"/>
<rect x="91" y="156" width="266" height="70" rx="12" fill="white"/>
<path d="M137.04 205V183.88H129.24V178.92H150.76V183.88H142.96V205H137.04ZM164.064 205.48C162.464 205.48 161.064 205.253 159.864 204.8C158.691 204.32 157.704 203.64 156.904 202.76C156.131 201.853 155.544 200.76 155.144 199.48C154.744 198.173 154.544 196.667 154.544 194.96V178.92H160.424V195.56C160.424 196.6 160.558 197.48 160.824 198.2C161.091 198.92 161.491 199.467 162.024 199.84C162.558 200.213 163.238 200.4 164.064 200.4C164.891 200.4 165.571 200.213 166.104 199.84C166.664 199.467 167.078 198.92 167.344 198.2C167.611 197.48 167.744 196.6 167.744 195.56V178.92H173.424V194.96C173.424 196.667 173.238 198.173 172.864 199.48C172.491 200.76 171.904 201.853 171.104 202.76C170.331 203.64 169.358 204.32 168.184 204.8C167.011 205.253 165.638 205.48 164.064 205.48ZM185.009 205V183.88H177.209V178.92H198.729V183.88H190.929V205H185.009ZM211.953 205.48C209.873 205.48 208.046 204.96 206.473 203.92C204.9 202.88 203.673 201.36 202.793 199.36C201.913 197.333 201.473 194.827 201.473 191.84C201.473 188.933 201.913 186.493 202.793 184.52C203.673 182.52 204.9 181.013 206.473 180C208.046 178.96 209.873 178.44 211.953 178.44C214.033 178.44 215.86 178.96 217.433 180C219.006 181.013 220.233 182.52 221.113 184.52C221.993 186.493 222.433 188.933 222.433 191.84C222.433 194.827 221.993 197.333 221.113 199.36C220.233 201.36 219.006 202.88 217.433 203.92C215.86 204.96 214.033 205.48 211.953 205.48ZM211.953 200.4C212.86 200.4 213.646 200.08 214.313 199.44C214.98 198.773 215.486 197.813 215.833 196.56C216.206 195.28 216.393 193.707 216.393 191.84C216.393 190.027 216.206 188.507 215.833 187.28C215.486 186.053 214.98 185.12 214.313 184.48C213.646 183.84 212.86 183.52 211.953 183.52C211.046 183.52 210.26 183.84 209.593 184.48C208.926 185.12 208.406 186.053 208.033 187.28C207.686 188.507 207.513 190.027 207.513 191.84C207.513 193.707 207.686 195.28 208.033 196.56C208.406 197.813 208.926 198.773 209.593 199.44C210.26 200.08 211.046 200.4 211.953 200.4ZM226.738 205V178.92H235.978C237.818 178.92 239.498 179.173 241.018 179.68C242.538 180.16 243.751 181 244.658 182.2C245.591 183.373 246.058 184.987 246.058 187.04C246.058 189.04 245.591 190.667 244.658 191.92C243.751 193.173 242.538 194.107 241.018 194.72C239.498 195.307 237.818 195.6 235.978 195.6H232.618V205H226.738ZM232.618 190.92H235.498C237.044 190.92 238.218 190.6 239.018 189.96C239.844 189.293 240.258 188.32 240.258 187.04C240.258 185.76 239.844 184.867 239.018 184.36C238.218 183.853 237.044 183.6 235.498 183.6H232.618V190.92ZM234.898 194.08L238.978 190.28L247.298 205H240.698L234.898 194.08ZM250.882 205V200.04H256.962V183.88H250.882V178.92H268.962V183.88H262.882V200.04H268.962V205H250.882ZM272.266 205L280.386 178.92H287.426L295.546 205H289.306L285.946 191.8C285.626 190.493 285.28 189.107 284.906 187.64C284.533 186.173 284.186 184.76 283.866 183.4H283.706C283.386 184.76 283.053 186.173 282.706 187.64C282.36 189.107 282.013 190.493 281.666 191.8L278.266 205H272.266ZM277.626 198.8V194.2H290.106V198.8H277.626ZM300.171 205V178.92H306.051V200.04H317.651V205H300.171Z" fill="black"/>
<path d="M97.72 405V363.272H125.432V371.208H107.128V380.872H122.744V388.808H107.128V405H97.72ZM148.575 405.768C145.802 405.768 143.178 405.128 140.703 403.848C138.228 402.525 136.223 400.627 134.687 398.152C133.151 395.635 132.383 392.627 132.383 389.128C132.383 385.629 133.151 382.643 134.687 380.168C136.223 377.651 138.228 375.752 140.703 374.472C143.178 373.149 145.802 372.488 148.575 372.488C151.348 372.488 153.972 373.149 156.447 374.472C158.922 375.752 160.927 377.651 162.463 380.168C163.999 382.643 164.767 385.629 164.767 389.128C164.767 392.627 163.999 395.635 162.463 398.152C160.927 400.627 158.922 402.525 156.447 403.848C153.972 405.128 151.348 405.768 148.575 405.768ZM148.575 398.152C150.026 398.152 151.22 397.789 152.159 397.064C153.14 396.339 153.866 395.293 154.335 393.928C154.847 392.563 155.103 390.963 155.103 389.128C155.103 387.293 154.847 385.693 154.335 384.328C153.866 382.963 153.14 381.917 152.159 381.192C151.22 380.467 150.026 380.104 148.575 380.104C147.124 380.104 145.908 380.467 144.927 381.192C143.988 381.917 143.263 382.963 142.751 384.328C142.282 385.693 142.047 387.293 142.047 389.128C142.047 390.963 142.282 392.563 142.751 393.928C143.263 395.293 143.988 396.339 144.927 397.064C145.908 397.789 147.124 398.152 148.575 398.152ZM175.174 405V373.256H182.854L183.622 380.168H183.814C185.393 377.565 187.291 375.645 189.51 374.408C191.771 373.128 194.161 372.488 196.678 372.488C198.086 372.488 199.217 372.595 200.07 372.808C200.966 373.021 201.883 373.341 202.822 373.768L200.902 381.64C199.921 381.341 199.025 381.128 198.214 381C197.446 380.829 196.465 380.744 195.27 380.744C193.307 380.744 191.366 381.32 189.446 382.472C187.569 383.624 185.947 385.629 184.582 388.488V405H175.174ZM208.365 405V373.256H215.469L216.109 377.16H216.365C216.962 375.88 217.794 374.792 218.861 373.896C219.928 372.957 221.378 372.488 223.213 372.488C224.578 372.488 225.752 372.936 226.733 373.832C227.714 374.685 228.376 375.965 228.717 377.672C229.314 376.221 230.168 375.005 231.277 374.024C232.429 373 233.922 372.488 235.757 372.488C238.018 372.488 239.768 373.405 241.005 375.24C242.242 377.075 242.861 379.571 242.861 382.728V405H233.901V383.368C233.901 381.448 233.325 380.488 232.173 380.488C231.576 380.488 231.042 380.744 230.573 381.256C230.146 381.725 229.72 382.493 229.293 383.56V405H221.933V383.368C221.933 382.387 221.784 381.661 221.485 381.192C221.186 380.723 220.738 380.488 220.141 380.488C219.544 380.488 219.032 380.744 218.605 381.256C218.178 381.725 217.752 382.493 217.325 383.56V405H208.365ZM297.339 405V371.208H284.859V363.272H319.291V371.208H306.811V405H297.339ZM335.522 405.768C331.895 405.768 329.271 404.616 327.65 402.312C326.029 400.008 325.218 396.851 325.218 392.84V373.256H334.626V391.624C334.626 393.757 334.946 395.315 335.586 396.296C336.269 397.277 337.485 397.768 339.234 397.768C340.429 397.768 341.495 397.512 342.434 397C343.373 396.488 344.375 395.528 345.442 394.12V373.256H354.85V405H347.17L346.466 400.456H346.21C344.802 402.035 343.245 403.315 341.538 404.296C339.831 405.277 337.826 405.768 335.522 405.768ZM384.457 405.768C381.086 405.768 378.398 405.192 376.393 404.04C374.43 402.845 373.001 401.203 372.105 399.112C371.209 397.021 370.761 394.589 370.761 391.816V380.616H362.825V373.64L371.209 373.256L372.425 363.528H380.169V373.256H393.609V380.616H380.169V391.752C380.169 393.331 380.404 394.611 380.873 395.592C381.342 396.573 382.068 397.299 383.049 397.768C384.03 398.195 385.289 398.408 386.825 398.408C388.062 398.408 389.193 398.301 390.217 398.088C391.241 397.875 392.222 397.597 393.161 397.256L394.825 404.04C393.417 404.467 391.86 404.851 390.153 405.192C388.489 405.576 386.59 405.768 384.457 405.768ZM417.2 405.768C414.427 405.768 411.803 405.128 409.328 403.848C406.853 402.525 404.848 400.627 403.312 398.152C401.776 395.635 401.008 392.627 401.008 389.128C401.008 385.629 401.776 382.643 403.312 380.168C404.848 377.651 406.853 375.752 409.328 374.472C411.803 373.149 414.427 372.488 417.2 372.488C419.973 372.488 422.597 373.149 425.072 374.472C427.547 375.752 429.552 377.651 431.088 380.168C432.624 382.643 433.392 385.629 433.392 389.128C433.392 392.627 432.624 395.635 431.088 398.152C429.552 400.627 427.547 402.525 425.072 403.848C422.597 405.128 419.973 405.768 417.2 405.768ZM417.2 398.152C418.651 398.152 419.845 397.789 420.784 397.064C421.765 396.339 422.491 395.293 422.96 393.928C423.472 392.563 423.728 390.963 423.728 389.128C423.728 387.293 423.472 385.693 422.96 384.328C422.491 382.963 421.765 381.917 420.784 381.192C419.845 380.467 418.651 380.104 417.2 380.104C415.749 380.104 414.533 380.467 413.552 381.192C412.613 381.917 411.888 382.963 411.376 384.328C410.907 385.693 410.672 387.293 410.672 389.128C410.672 390.963 410.907 392.563 411.376 393.928C411.888 395.293 412.613 396.339 413.552 397.064C414.533 397.789 415.749 398.152 417.2 398.152ZM443.799 405V373.256H451.479L452.247 380.168H452.439C454.018 377.565 455.916 375.645 458.135 374.408C460.396 373.128 462.786 372.488 465.303 372.488C466.711 372.488 467.842 372.595 468.695 372.808C469.591 373.021 470.508 373.341 471.447 373.768L469.527 381.64C468.546 381.341 467.65 381.128 466.839 381C466.071 380.829 465.09 380.744 463.895 380.744C461.932 380.744 459.991 381.32 458.071 382.472C456.194 383.624 454.572 385.629 453.207 388.488V405H443.799ZM492.542 405V380.616H479.742V373.256H501.95V405H492.542ZM496.83 368.264C495.038 368.264 493.545 367.752 492.35 366.728C491.155 365.661 490.558 364.275 490.558 362.568C490.558 360.819 491.155 359.411 492.35 358.344C493.545 357.235 495.038 356.68 496.83 356.68C498.665 356.68 500.158 357.235 501.31 358.344C502.505 359.411 503.102 360.819 503.102 362.568C503.102 364.275 502.505 365.661 501.31 366.728C500.158 367.752 498.665 368.264 496.83 368.264ZM527.461 405.768C525.328 405.768 523.472 405.341 521.893 404.488C520.357 403.635 519.162 402.483 518.309 401.032C517.456 399.581 517.029 397.96 517.029 396.168C517.029 392.627 518.629 389.917 521.829 388.04C525.072 386.163 530.448 385.011 537.957 384.584C537.829 383.603 537.509 382.771 536.997 382.088C536.485 381.405 535.738 380.893 534.757 380.552C533.818 380.168 532.624 379.976 531.173 379.976C530.149 379.976 529.125 380.104 528.101 380.36C527.077 380.573 526.01 380.915 524.901 381.384C523.834 381.811 522.704 382.323 521.509 382.92L518.181 376.776C519.632 375.923 521.146 375.176 522.725 374.536C524.346 373.896 526.01 373.405 527.717 373.064C529.466 372.68 531.237 372.488 533.029 372.488C536.016 372.488 538.576 373.021 540.709 374.088C542.842 375.112 544.485 376.691 545.637 378.824C546.789 380.915 547.365 383.581 547.365 386.824V405H539.685L538.981 401.416H538.725C537.146 402.611 535.397 403.635 533.477 404.488C531.557 405.341 529.552 405.768 527.461 405.768ZM530.469 398.472C531.877 398.472 533.2 398.195 534.437 397.64C535.674 397.043 536.848 396.317 537.957 395.464V390.216C534.842 390.387 532.41 390.707 530.661 391.176C528.954 391.645 527.76 392.243 527.077 392.968C526.394 393.693 526.053 394.525 526.053 395.464C526.053 396.104 526.224 396.659 526.565 397.128C526.949 397.597 527.461 397.939 528.101 398.152C528.784 398.365 529.573 398.472 530.469 398.472ZM576.78 405.768C572.812 405.768 569.804 404.573 567.756 402.184C565.708 399.795 564.684 396.595 564.684 392.584V367.56H554.764V360.2H574.092V392.968C574.092 394.931 574.625 396.296 575.692 397.064C576.759 397.789 577.932 398.152 579.212 398.152C579.98 398.152 580.748 398.067 581.516 397.896C582.327 397.725 583.223 397.469 584.204 397.128L586.252 404.04C584.631 404.552 583.137 404.957 581.772 405.256C580.449 405.597 578.785 405.768 576.78 405.768Z" fill="white"/>
<path d="M148.694 573.468L131.668 590.488C128.803 593.352 124.158 593.352 121.293 590.488L117.784 586.981C114.92 584.117 114.92 579.473 117.785 576.61L134.811 559.59L148.694 573.468Z" fill="#F7DF1E"/>
<path d="M134.811 559.59L151.837 576.61C154.702 579.474 154.702 584.117 151.837 586.981L148.328 590.488C145.463 593.352 140.818 593.352 137.953 590.488L120.927 573.468L134.811 559.59Z" fill="#F7DF1E"/>
<path d="M121.544 574.083L104.518 557.064C101.653 554.2 101.653 549.557 104.518 546.693L108.027 543.185C110.892 540.322 115.537 540.322 118.402 543.185L135.428 560.205L121.544 574.083Z" fill="#264DE4"/>
<path d="M135.427 560.205L118.401 577.225C115.536 580.089 110.891 580.089 108.026 577.225L104.517 573.717C101.652 570.853 101.652 566.21 104.517 563.346L121.543 546.327L135.427 560.205Z" fill="#264DE4"/>
<path d="M148.079 546.327L165.105 563.347C167.97 566.211 167.97 570.854 165.105 573.718L161.596 577.225C158.731 580.089 154.086 580.089 151.221 577.225L134.195 560.206L148.079 546.327Z" fill="#E34C26"/>
<path d="M134.196 560.205L151.222 543.186C154.087 540.322 158.732 540.322 161.597 543.186L165.106 546.693C167.971 549.557 167.971 554.2 165.106 557.064L148.08 574.084L134.196 560.205Z" fill="#E34C26"/>
<path d="M135.427 556.896C133.258 556.896 131.5 558.653 131.5 560.821C131.5 562.989 133.258 564.747 135.427 564.747C137.595 564.747 139.354 562.989 139.354 560.821C139.354 558.653 137.595 556.896 135.427 556.896Z" fill="#53C1DE"/>
<path d="M199.399 589.967C196.899 589.967 194.557 589.562 192.374 588.753C190.191 587.943 188.324 587.01 186.775 585.954L188.782 583.103C190.261 584.159 191.898 585.004 193.694 585.638C195.49 586.271 197.568 586.588 199.927 586.588C202.11 586.588 203.73 586.183 204.786 585.374C205.878 584.564 206.424 583.631 206.424 582.575C206.424 582.082 206.318 581.625 206.107 581.202C205.931 580.78 205.561 580.375 204.998 579.988C204.469 579.601 203.677 579.231 202.621 578.879C201.564 578.527 200.156 578.175 198.395 577.823C195.05 577.119 192.532 576.169 190.842 574.972C189.187 573.775 188.359 572.226 188.359 570.326C188.359 568.249 189.257 566.524 191.053 565.151C192.849 563.743 195.508 563.039 199.029 563.039C201.001 563.039 202.903 563.374 204.734 564.042C206.565 564.676 208.114 565.433 209.382 566.313L207.269 569.111C206.107 568.266 204.786 567.615 203.307 567.158C201.829 566.665 200.279 566.418 198.659 566.418C197.18 566.418 196.001 566.594 195.12 566.946C194.275 567.263 193.659 567.703 193.272 568.266C192.92 568.83 192.744 569.446 192.744 570.114C192.744 571.206 193.325 572.068 194.487 572.702C195.684 573.3 197.585 573.863 200.191 574.391C203.043 574.99 205.227 575.658 206.741 576.398C208.29 577.137 209.347 577.982 209.91 578.932C210.509 579.882 210.808 581.009 210.808 582.311C210.808 583.719 210.368 585.004 209.487 586.166C208.607 587.292 207.322 588.207 205.632 588.911C203.941 589.615 201.864 589.967 199.399 589.967ZM232.971 589.967C230.295 589.967 227.883 589.439 225.735 588.383C223.622 587.327 221.95 585.796 220.717 583.79C219.52 581.783 218.921 579.372 218.921 576.556C218.921 573.67 219.573 571.223 220.876 569.217C222.179 567.21 223.904 565.679 226.052 564.623C228.235 563.567 230.63 563.039 233.236 563.039C235.348 563.039 237.162 563.409 238.677 564.148C240.226 564.887 241.529 565.767 242.585 566.788L240.42 569.586C239.363 568.671 238.272 567.95 237.144 567.422C236.017 566.894 234.767 566.63 233.394 566.63C231.422 566.63 229.679 567.052 228.165 567.897C226.651 568.706 225.471 569.868 224.626 571.382C223.816 572.86 223.411 574.585 223.411 576.556C223.411 578.492 223.816 580.199 224.626 581.678C225.436 583.156 226.58 584.318 228.059 585.162C229.573 585.972 231.316 586.377 233.288 586.377C234.873 586.377 236.317 586.06 237.62 585.426C238.958 584.793 240.155 584.036 241.212 583.156L243.166 585.954C241.758 587.222 240.173 588.207 238.412 588.911C236.686 589.615 234.873 589.967 232.971 589.967ZM254.079 589.334V563.673H257.671L258.041 569.745H258.199C259.537 567.668 261.192 566.031 263.164 564.834C265.136 563.638 267.302 563.039 269.661 563.039C270.612 563.039 271.492 563.127 272.302 563.303C273.147 563.444 273.957 563.708 274.732 564.095L273.728 567.844C272.848 567.527 272.091 567.298 271.457 567.158C270.823 567.017 269.996 566.946 268.974 566.946C267.038 566.946 265.171 567.51 263.376 568.636C261.615 569.727 259.96 571.61 258.411 574.286V589.334H254.079ZM291.033 589.967C289.448 589.967 287.987 589.686 286.649 589.122C285.31 588.524 284.254 587.679 283.479 586.588C282.705 585.497 282.317 584.194 282.317 582.681C282.317 579.794 283.761 577.612 286.649 576.134C289.536 574.62 294.29 573.599 300.91 573.071C300.875 571.91 300.628 570.836 300.17 569.85C299.748 568.865 299.044 568.09 298.058 567.527C297.072 566.929 295.751 566.63 294.096 566.63C293.005 566.63 291.913 566.788 290.821 567.105C289.765 567.386 288.744 567.774 287.758 568.266C286.807 568.724 285.927 569.199 285.117 569.692L283.427 566.735C284.272 566.172 285.293 565.609 286.49 565.046C287.723 564.447 289.043 563.972 290.452 563.62C291.86 563.233 293.321 563.039 294.836 563.039C297.195 563.039 299.132 563.479 300.646 564.359C302.195 565.239 303.34 566.471 304.079 568.055C304.854 569.604 305.241 571.452 305.241 573.599V589.334H301.702L301.332 585.849H301.174C299.765 586.975 298.181 587.943 296.42 588.753C294.66 589.562 292.864 589.967 291.033 589.967ZM292.195 586.482C293.674 586.482 295.135 586.148 296.579 585.479C298.022 584.81 299.466 583.878 300.91 582.681V575.922C297.248 576.239 294.36 576.679 292.247 577.242C290.17 577.806 288.691 578.527 287.811 579.407C286.965 580.252 286.543 581.238 286.543 582.364C286.543 583.314 286.807 584.106 287.335 584.74C287.863 585.338 288.55 585.778 289.395 586.06C290.275 586.342 291.209 586.482 292.195 586.482ZM330.52 589.967C328.02 589.967 326.048 589.527 324.604 588.647C323.16 587.732 322.121 586.482 321.488 584.898C320.889 583.314 320.59 581.466 320.59 579.354V567.21H313.353V563.937L320.748 563.673L321.329 555.436H324.921V563.673H337.545V567.21H324.921V579.407C324.921 580.921 325.114 582.206 325.502 583.262C325.889 584.318 326.558 585.11 327.509 585.638C328.46 586.166 329.763 586.43 331.418 586.43C332.65 586.43 333.759 586.324 334.745 586.113C335.731 585.902 336.682 585.62 337.598 585.268L338.548 588.436C337.386 588.858 336.154 589.21 334.851 589.492C333.583 589.809 332.139 589.967 330.52 589.967ZM359.656 589.967C356.979 589.967 354.567 589.439 352.419 588.383C350.307 587.327 348.634 585.796 347.401 583.79C346.204 581.783 345.606 579.372 345.606 576.556C345.606 573.67 346.257 571.223 347.56 569.217C348.863 567.21 350.588 565.679 352.736 564.623C354.919 563.567 357.314 563.039 359.92 563.039C362.032 563.039 363.846 563.409 365.36 564.148C366.91 564.887 368.212 565.767 369.269 566.788L367.103 569.586C366.047 568.671 364.955 567.95 363.828 567.422C362.702 566.894 361.451 566.63 360.078 566.63C358.106 566.63 356.363 567.052 354.849 567.897C353.335 568.706 352.155 569.868 351.31 571.382C350.5 572.86 350.095 574.585 350.095 576.556C350.095 578.492 350.5 580.199 351.31 581.678C352.12 583.156 353.264 584.318 354.743 585.162C356.258 585.972 358.001 586.377 359.973 586.377C361.557 586.377 363.001 586.06 364.304 585.426C365.642 584.793 366.839 584.036 367.895 583.156L369.85 585.954C368.441 587.222 366.857 588.207 365.096 588.911C363.371 589.615 361.557 589.967 359.656 589.967ZM377.963 589.334V551.74H382.295V561.983L382.031 568.055H382.189C383.492 566.647 384.918 565.468 386.467 564.518C388.017 563.532 389.795 563.039 391.802 563.039C394.831 563.039 397.067 563.919 398.51 565.679C399.954 567.439 400.676 570.009 400.676 573.388V589.334H396.345V573.969C396.345 571.54 395.887 569.745 394.971 568.583C394.056 567.386 392.542 566.788 390.429 566.788C388.915 566.788 387.559 567.175 386.362 567.95C385.165 568.724 383.809 569.886 382.295 571.434V589.334H377.963ZM418.35 589.334V558.393H406.941V554.697H434.196V558.393H422.787V589.334H418.35ZM452.24 589.967C449.986 589.967 447.891 589.439 445.954 588.383C444.053 587.327 442.503 585.796 441.306 583.79C440.144 581.783 439.563 579.372 439.563 576.556C439.563 573.67 440.144 571.223 441.306 569.217C442.503 567.21 444.053 565.679 445.954 564.623C447.891 563.567 449.986 563.039 452.24 563.039C454.493 563.039 456.571 563.567 458.472 564.623C460.409 565.679 461.958 567.21 463.121 569.217C464.318 571.223 464.916 573.67 464.916 576.556C464.916 579.372 464.318 581.783 463.121 583.79C461.958 585.796 460.409 587.327 458.472 588.383C456.571 589.439 454.493 589.967 452.24 589.967ZM452.24 586.377C453.895 586.377 455.338 585.972 456.571 585.162C457.803 584.318 458.754 583.156 459.423 581.678C460.092 580.199 460.427 578.492 460.427 576.556C460.427 574.585 460.092 572.86 459.423 571.382C458.754 569.868 457.803 568.706 456.571 567.897C455.338 567.052 453.895 566.63 452.24 566.63C450.585 566.63 449.141 567.052 447.908 567.897C446.711 568.706 445.76 569.868 445.056 571.382C444.387 572.86 444.053 574.585 444.053 576.556C444.053 578.492 444.387 580.199 445.056 581.678C445.76 583.156 446.711 584.318 447.908 585.162C449.141 585.972 450.585 586.377 452.24 586.377ZM471.762 589.334V554.908H483.964C486.393 554.908 488.612 555.242 490.619 555.911C492.626 556.545 494.228 557.654 495.426 559.238C496.658 560.786 497.274 562.916 497.274 565.626C497.274 568.266 496.658 570.414 495.426 572.068C494.228 573.722 492.626 574.954 490.619 575.764C488.612 576.538 486.393 576.926 483.964 576.926H479.527V589.334H471.762ZM479.527 570.748H483.33C485.372 570.748 486.922 570.326 487.978 569.481C489.07 568.601 489.615 567.316 489.615 565.626C489.615 563.937 489.07 562.758 487.978 562.089C486.922 561.42 485.372 561.086 483.33 561.086H479.527V570.748ZM482.538 574.919L487.925 569.903L498.912 589.334H490.196L482.538 574.919ZM517.167 589.967C514.455 589.967 511.99 589.439 509.772 588.383C507.589 587.292 505.846 585.726 504.543 583.684C503.275 581.607 502.641 579.126 502.641 576.239C502.641 573.388 503.293 570.942 504.596 568.9C505.899 566.823 507.589 565.239 509.666 564.148C511.744 563.057 513.945 562.511 516.269 562.511C518.98 562.511 521.252 563.074 523.083 564.201C524.914 565.292 526.287 566.788 527.203 568.689C528.153 570.554 528.629 572.684 528.629 575.078C528.629 575.782 528.576 576.468 528.47 577.137C528.4 577.77 528.329 578.246 528.259 578.562H508.399V573.335H523.03L521.815 574.814C521.815 572.702 521.357 571.118 520.442 570.062C519.561 568.97 518.258 568.425 516.533 568.425C515.265 568.425 514.156 568.706 513.205 569.27C512.255 569.833 511.515 570.695 510.987 571.857C510.459 573.018 510.195 574.479 510.195 576.239C510.195 578.034 510.512 579.513 511.145 580.674C511.779 581.801 512.695 582.646 513.892 583.209C515.089 583.772 516.533 584.054 518.223 584.054C519.42 584.054 520.547 583.895 521.604 583.578C522.695 583.262 523.822 582.804 524.984 582.206L527.572 586.905C526.058 587.855 524.385 588.612 522.554 589.175C520.723 589.703 518.927 589.967 517.167 589.967ZM543.239 589.967C541.479 589.967 539.947 589.615 538.644 588.911C537.376 588.207 536.39 587.257 535.686 586.06C534.982 584.863 534.63 583.526 534.63 582.047C534.63 579.126 535.95 576.89 538.591 575.342C541.267 573.793 545.704 572.842 551.902 572.49C551.796 571.681 551.532 570.994 551.109 570.431C550.687 569.868 550.071 569.446 549.261 569.164C548.486 568.847 547.5 568.689 546.303 568.689C545.458 568.689 544.612 568.794 543.767 569.006C542.922 569.182 542.042 569.463 541.126 569.85C540.246 570.202 539.313 570.625 538.327 571.118L535.58 566.049C536.778 565.345 538.028 564.729 539.331 564.201C540.669 563.673 542.042 563.268 543.45 562.986C544.894 562.67 546.356 562.511 547.834 562.511C550.299 562.511 552.412 562.951 554.173 563.831C555.934 564.676 557.289 565.978 558.24 567.738C559.191 569.463 559.666 571.663 559.666 574.338V589.334H553.328L552.747 586.377H552.535C551.233 587.362 549.789 588.207 548.204 588.911C546.62 589.615 544.965 589.967 543.239 589.967ZM545.722 583.948C546.884 583.948 547.975 583.719 548.997 583.262C550.018 582.769 550.986 582.17 551.902 581.466V577.137C549.331 577.278 547.324 577.542 545.88 577.929C544.472 578.316 543.486 578.809 542.922 579.407C542.359 580.006 542.077 580.692 542.077 581.466C542.077 581.994 542.218 582.452 542.5 582.839C542.817 583.226 543.239 583.508 543.767 583.684C544.331 583.86 544.982 583.948 545.722 583.948ZM581.196 589.967C578.449 589.967 575.967 589.439 573.748 588.383C571.565 587.292 569.822 585.726 568.519 583.684C567.252 581.607 566.618 579.126 566.618 576.239C566.618 573.353 567.322 570.889 568.731 568.847C570.139 566.77 571.988 565.204 574.277 564.148C576.601 563.057 579.101 562.511 581.777 562.511C583.855 562.511 585.738 562.846 587.429 563.514C589.119 564.148 590.51 564.993 591.601 566.049L588.01 570.854C586.989 570.15 586.003 569.639 585.052 569.322C584.136 568.97 583.186 568.794 582.2 568.794C580.721 568.794 579.4 569.094 578.238 569.692C577.076 570.29 576.178 571.153 575.544 572.279C574.91 573.406 574.594 574.726 574.594 576.239C574.594 577.753 574.893 579.073 575.491 580.199C576.125 581.326 576.988 582.188 578.08 582.786C579.206 583.385 580.492 583.684 581.935 583.684C583.309 583.684 584.559 583.438 585.686 582.945C586.848 582.452 587.904 581.871 588.855 581.202L591.971 586.113C590.422 587.415 588.679 588.383 586.742 589.017C584.841 589.65 582.992 589.967 581.196 589.967ZM615.244 589.967C612.462 589.967 610.244 589.492 608.589 588.542C606.969 587.556 605.789 586.201 605.05 584.476C604.31 582.751 603.941 580.745 603.941 578.457V569.217H597.391V563.462L604.31 563.145L605.314 555.119H611.705V563.145H622.797V569.217H611.705V578.404C611.705 579.706 611.899 580.762 612.286 581.572C612.674 582.382 613.272 582.98 614.082 583.367C614.892 583.719 615.931 583.895 617.198 583.895C618.22 583.895 619.153 583.807 619.998 583.631C620.843 583.455 621.653 583.226 622.428 582.945L623.801 588.542C622.639 588.894 621.354 589.21 619.945 589.492C618.572 589.809 617.005 589.967 615.244 589.967Z" fill="black"/>
<defs>
<linearGradient id="paint0_linear_90_78" x1="592.5" y1="0" x2="592.5" y2="760" gradientUnits="userSpaceOnUse">
<stop/>
<stop offset="1" stop-color="#F7DF1E"/>
</linearGradient>
</defs>
</svg>
