<svg width="1185" height="760" viewBox="0 0 1185 760" fill="none" xmlns="http://www.w3.org/2000/svg">
<rect width="1185" height="760" fill="url(#paint0_linear_84_2)"/>
<rect x="91" y="156" width="266" height="70" rx="12" fill="white"/>
<path d="M137.04 205V183.88H129.24V178.92H150.76V183.88H142.96V205H137.04ZM164.064 205.48C162.464 205.48 161.064 205.253 159.864 204.8C158.691 204.32 157.704 203.64 156.904 202.76C156.131 201.853 155.544 200.76 155.144 199.48C154.744 198.173 154.544 196.667 154.544 194.96V178.92H160.424V195.56C160.424 196.6 160.558 197.48 160.824 198.2C161.091 198.92 161.491 199.467 162.024 199.84C162.558 200.213 163.238 200.4 164.064 200.4C164.891 200.4 165.571 200.213 166.104 199.84C166.664 199.467 167.078 198.92 167.344 198.2C167.611 197.48 167.744 196.6 167.744 195.56V178.92H173.424V194.96C173.424 196.667 173.238 198.173 172.864 199.48C172.491 200.76 171.904 201.853 171.104 202.76C170.331 203.64 169.358 204.32 168.184 204.8C167.011 205.253 165.638 205.48 164.064 205.48ZM185.009 205V183.88H177.209V178.92H198.729V183.88H190.929V205H185.009ZM211.953 205.48C209.873 205.48 208.046 204.96 206.473 203.92C204.9 202.88 203.673 201.36 202.793 199.36C201.913 197.333 201.473 194.827 201.473 191.84C201.473 188.933 201.913 186.493 202.793 184.52C203.673 182.52 204.9 181.013 206.473 180C208.046 178.96 209.873 178.44 211.953 178.44C214.033 178.44 215.86 178.96 217.433 180C219.006 181.013 220.233 182.52 221.113 184.52C221.993 186.493 222.433 188.933 222.433 191.84C222.433 194.827 221.993 197.333 221.113 199.36C220.233 201.36 219.006 202.88 217.433 203.92C215.86 204.96 214.033 205.48 211.953 205.48ZM211.953 200.4C212.86 200.4 213.646 200.08 214.313 199.44C214.98 198.773 215.486 197.813 215.833 196.56C216.206 195.28 216.393 193.707 216.393 191.84C216.393 190.027 216.206 188.507 215.833 187.28C215.486 186.053 214.98 185.12 214.313 184.48C213.646 183.84 212.86 183.52 211.953 183.52C211.046 183.52 210.26 183.84 209.593 184.48C208.926 185.12 208.406 186.053 208.033 187.28C207.686 188.507 207.513 190.027 207.513 191.84C207.513 193.707 207.686 195.28 208.033 196.56C208.406 197.813 208.926 198.773 209.593 199.44C210.26 200.08 211.046 200.4 211.953 200.4ZM226.738 205V178.92H235.978C237.818 178.92 239.498 179.173 241.018 179.68C242.538 180.16 243.751 181 244.658 182.2C245.591 183.373 246.058 184.987 246.058 187.04C246.058 189.04 245.591 190.667 244.658 191.92C243.751 193.173 242.538 194.107 241.018 194.72C239.498 195.307 237.818 195.6 235.978 195.6H232.618V205H226.738ZM232.618 190.92H235.498C237.044 190.92 238.218 190.6 239.018 189.96C239.844 189.293 240.258 188.32 240.258 187.04C240.258 185.76 239.844 184.867 239.018 184.36C238.218 183.853 237.044 183.6 235.498 183.6H232.618V190.92ZM234.898 194.08L238.978 190.28L247.298 205H240.698L234.898 194.08ZM250.882 205V200.04H256.962V183.88H250.882V178.92H268.962V183.88H262.882V200.04H268.962V205H250.882ZM272.266 205L280.386 178.92H287.426L295.546 205H289.306L285.946 191.8C285.626 190.493 285.28 189.107 284.906 187.64C284.533 186.173 284.186 184.76 283.866 183.4H283.706C283.386 184.76 283.053 186.173 282.706 187.64C282.36 189.107 282.013 190.493 281.666 191.8L278.266 205H272.266ZM277.626 198.8V194.2H290.106V198.8H277.626ZM300.171 205V178.92H306.051V200.04H317.651V205H300.171Z" fill="black"/>
<path d="M95.224 405V363.272H104.888L113.656 384.008L117.24 393.224H117.496C117.283 391.005 117.005 388.531 116.664 385.8C116.323 383.069 116.152 380.488 116.152 378.056V363.272H125.176V405H115.512L106.744 384.2L103.16 375.112H102.904C103.117 377.373 103.395 379.848 103.736 382.536C104.077 385.181 104.248 387.741 104.248 390.216V405H95.224ZM143.711 405.768C141.578 405.768 139.722 405.341 138.143 404.488C136.607 403.635 135.412 402.483 134.559 401.032C133.706 399.581 133.279 397.96 133.279 396.168C133.279 392.627 134.879 389.917 138.079 388.04C141.322 386.163 146.698 385.011 154.207 384.584C154.079 383.603 153.759 382.771 153.247 382.088C152.735 381.405 151.988 380.893 151.007 380.552C150.068 380.168 148.874 379.976 147.423 379.976C146.399 379.976 145.375 380.104 144.351 380.36C143.327 380.573 142.26 380.915 141.151 381.384C140.084 381.811 138.954 382.323 137.759 382.92L134.431 376.776C135.882 375.923 137.396 375.176 138.975 374.536C140.596 373.896 142.26 373.405 143.967 373.064C145.716 372.68 147.487 372.488 149.279 372.488C152.266 372.488 154.826 373.021 156.959 374.088C159.092 375.112 160.735 376.691 161.887 378.824C163.039 380.915 163.615 383.581 163.615 386.824V405H155.935L155.231 401.416H154.975C153.396 402.611 151.647 403.635 149.727 404.488C147.807 405.341 145.802 405.768 143.711 405.768ZM146.719 398.472C148.127 398.472 149.45 398.195 150.687 397.64C151.924 397.043 153.098 396.317 154.207 395.464V390.216C151.092 390.387 148.66 390.707 146.911 391.176C145.204 391.645 144.01 392.243 143.327 392.968C142.644 393.693 142.303 394.525 142.303 395.464C142.303 396.104 142.474 396.659 142.815 397.128C143.199 397.597 143.711 397.939 144.351 398.152C145.034 398.365 145.823 398.472 146.719 398.472ZM181.702 405L169.734 373.256H179.206L184.198 388.232C184.71 389.811 185.201 391.411 185.67 393.032C186.139 394.653 186.609 396.317 187.078 398.024H187.334C187.803 396.317 188.251 394.653 188.678 393.032C189.147 391.411 189.638 389.811 190.15 388.232L195.142 373.256H204.166L192.518 405H181.702ZM223.917 405V380.616H211.117V373.256H233.325V405H223.917ZM228.205 368.264C226.413 368.264 224.92 367.752 223.725 366.728C222.53 365.661 221.933 364.275 221.933 362.568C221.933 360.819 222.53 359.411 223.725 358.344C224.92 357.235 226.413 356.68 228.205 356.68C230.04 356.68 231.533 357.235 232.685 358.344C233.88 359.411 234.477 360.819 234.477 362.568C234.477 364.275 233.88 365.661 232.685 366.728C231.533 367.752 230.04 368.264 228.205 368.264ZM262.228 418.504C259.455 418.504 256.98 418.205 254.804 417.608C252.671 417.053 250.964 416.179 249.684 414.984C248.447 413.789 247.828 412.253 247.828 410.376C247.828 409.096 248.233 407.923 249.044 406.856C249.897 405.789 251.135 404.851 252.756 404.04V403.784C251.86 403.187 251.092 402.461 250.452 401.608C249.855 400.755 249.556 399.667 249.556 398.344C249.556 397.277 249.897 396.211 250.58 395.144C251.305 394.077 252.223 393.16 253.332 392.392V392.136C252.18 391.368 251.199 390.28 250.388 388.872C249.577 387.464 249.172 385.843 249.172 384.008C249.172 381.448 249.791 379.315 251.028 377.608C252.308 375.901 253.972 374.621 256.02 373.768C258.111 372.915 260.351 372.488 262.74 372.488C264.703 372.488 266.452 372.744 267.988 373.256H280.852V380.168H274.452C274.836 380.637 275.156 381.256 275.412 382.024C275.711 382.749 275.86 383.517 275.86 384.328C275.86 386.76 275.263 388.765 274.068 390.344C272.916 391.88 271.359 393.032 269.396 393.8C267.433 394.568 265.215 394.952 262.74 394.952C262.143 394.952 261.46 394.909 260.692 394.824C259.924 394.696 259.156 394.525 258.388 394.312C257.876 394.653 257.513 394.995 257.3 395.336C257.087 395.677 256.98 396.125 256.98 396.68C256.98 397.491 257.407 398.088 258.26 398.472C259.156 398.856 260.521 399.048 262.356 399.048H268.244C272.425 399.048 275.604 399.667 277.78 400.904C279.999 402.141 281.108 404.189 281.108 407.048C281.108 409.267 280.34 411.229 278.804 412.936C277.268 414.685 275.071 416.051 272.212 417.032C269.396 418.013 266.068 418.504 262.228 418.504ZM262.74 389.256C263.636 389.256 264.447 389.064 265.172 388.68C265.897 388.296 266.473 387.72 266.9 386.952C267.327 386.141 267.54 385.16 267.54 384.008C267.54 382.899 267.327 381.96 266.9 381.192C266.473 380.424 265.897 379.848 265.172 379.464C264.447 379.037 263.636 378.824 262.74 378.824C261.887 378.824 261.097 379.037 260.372 379.464C259.647 379.848 259.071 380.424 258.644 381.192C258.217 381.96 258.004 382.899 258.004 384.008C258.004 385.16 258.217 386.141 258.644 386.952C259.071 387.72 259.647 388.296 260.372 388.68C261.097 389.064 261.887 389.256 262.74 389.256ZM263.572 412.552C265.279 412.552 266.772 412.381 268.052 412.04C269.332 411.699 270.335 411.229 271.06 410.632C271.785 410.077 272.148 409.437 272.148 408.712C272.148 407.645 271.679 406.963 270.74 406.664C269.801 406.408 268.415 406.28 266.58 406.28H262.612C261.46 406.28 260.5 406.237 259.732 406.152C259.007 406.067 258.345 405.96 257.748 405.832C256.937 406.344 256.361 406.835 256.02 407.304C255.679 407.816 255.508 408.371 255.508 408.968C255.508 410.12 256.233 410.995 257.684 411.592C259.135 412.232 261.097 412.552 263.572 412.552ZM297.211 405.768C295.078 405.768 293.222 405.341 291.643 404.488C290.107 403.635 288.912 402.483 288.059 401.032C287.206 399.581 286.779 397.96 286.779 396.168C286.779 392.627 288.379 389.917 291.579 388.04C294.822 386.163 300.198 385.011 307.707 384.584C307.579 383.603 307.259 382.771 306.747 382.088C306.235 381.405 305.488 380.893 304.507 380.552C303.568 380.168 302.374 379.976 300.923 379.976C299.899 379.976 298.875 380.104 297.851 380.36C296.827 380.573 295.76 380.915 294.651 381.384C293.584 381.811 292.454 382.323 291.259 382.92L287.931 376.776C289.382 375.923 290.896 375.176 292.475 374.536C294.096 373.896 295.76 373.405 297.467 373.064C299.216 372.68 300.987 372.488 302.779 372.488C305.766 372.488 308.326 373.021 310.459 374.088C312.592 375.112 314.235 376.691 315.387 378.824C316.539 380.915 317.115 383.581 317.115 386.824V405H309.435L308.731 401.416H308.475C306.896 402.611 305.147 403.635 303.227 404.488C301.307 405.341 299.302 405.768 297.211 405.768ZM300.219 398.472C301.627 398.472 302.95 398.195 304.187 397.64C305.424 397.043 306.598 396.317 307.707 395.464V390.216C304.592 390.387 302.16 390.707 300.411 391.176C298.704 391.645 297.51 392.243 296.827 392.968C296.144 393.693 295.803 394.525 295.803 395.464C295.803 396.104 295.974 396.659 296.315 397.128C296.699 397.597 297.211 397.939 297.851 398.152C298.534 398.365 299.323 398.472 300.219 398.472ZM346.082 405.768C342.711 405.768 340.023 405.192 338.018 404.04C336.055 402.845 334.626 401.203 333.73 399.112C332.834 397.021 332.386 394.589 332.386 391.816V380.616H324.45V373.64L332.834 373.256L334.05 363.528H341.794V373.256H355.234V380.616H341.794V391.752C341.794 393.331 342.029 394.611 342.498 395.592C342.967 396.573 343.693 397.299 344.674 397.768C345.655 398.195 346.914 398.408 348.45 398.408C349.687 398.408 350.818 398.301 351.842 398.088C352.866 397.875 353.847 397.597 354.786 397.256L356.45 404.04C355.042 404.467 353.485 404.851 351.778 405.192C350.114 405.576 348.215 405.768 346.082 405.768ZM377.417 405V380.616H364.617V373.256H386.825V405H377.417ZM381.705 368.264C379.913 368.264 378.42 367.752 377.225 366.728C376.03 365.661 375.433 364.275 375.433 362.568C375.433 360.819 376.03 359.411 377.225 358.344C378.42 357.235 379.913 356.68 381.705 356.68C383.54 356.68 385.033 357.235 386.185 358.344C387.38 359.411 387.977 360.819 387.977 362.568C387.977 364.275 387.38 365.661 386.185 366.728C385.033 367.752 383.54 368.264 381.705 368.264ZM417.2 405.768C414.427 405.768 411.803 405.128 409.328 403.848C406.853 402.525 404.848 400.627 403.312 398.152C401.776 395.635 401.008 392.627 401.008 389.128C401.008 385.629 401.776 382.643 403.312 380.168C404.848 377.651 406.853 375.752 409.328 374.472C411.803 373.149 414.427 372.488 417.2 372.488C419.973 372.488 422.597 373.149 425.072 374.472C427.547 375.752 429.552 377.651 431.088 380.168C432.624 382.643 433.392 385.629 433.392 389.128C433.392 392.627 432.624 395.635 431.088 398.152C429.552 400.627 427.547 402.525 425.072 403.848C422.597 405.128 419.973 405.768 417.2 405.768ZM417.2 398.152C418.651 398.152 419.845 397.789 420.784 397.064C421.765 396.339 422.491 395.293 422.96 393.928C423.472 392.563 423.728 390.963 423.728 389.128C423.728 387.293 423.472 385.693 422.96 384.328C422.491 382.963 421.765 381.917 420.784 381.192C419.845 380.467 418.651 380.104 417.2 380.104C415.749 380.104 414.533 380.467 413.552 381.192C412.613 381.917 411.888 382.963 411.376 384.328C410.907 385.693 410.672 387.293 410.672 389.128C410.672 390.963 410.907 392.563 411.376 393.928C411.888 395.293 412.613 396.339 413.552 397.064C414.533 397.789 415.749 398.152 417.2 398.152ZM440.983 405V373.256H448.663L449.367 377.48H449.623C450.988 376.115 452.546 374.941 454.295 373.96C456.087 372.979 458.178 372.488 460.567 372.488C464.151 372.488 466.775 373.64 468.439 375.944C470.103 378.248 470.935 381.405 470.935 385.416V405H461.527V386.632C461.527 384.499 461.164 382.941 460.439 381.96C459.756 380.979 458.562 380.488 456.855 380.488C455.575 380.488 454.444 380.787 453.463 381.384C452.524 381.939 451.5 382.749 450.391 383.816V405H440.983ZM517.861 405V363.272H531.877C534.778 363.272 537.381 363.592 539.685 364.232C541.989 364.829 543.802 365.875 545.125 367.368C546.49 368.861 547.173 370.952 547.173 373.64C547.173 375.517 546.597 377.331 545.445 379.08C544.293 380.829 542.48 382.024 540.005 382.664V382.92C542.992 383.432 545.253 384.499 546.789 386.12C548.325 387.699 549.093 389.896 549.093 392.712C549.093 395.528 548.389 397.853 546.981 399.688C545.573 401.48 543.653 402.824 541.221 403.72C538.832 404.573 536.122 405 533.093 405H517.861ZM527.269 380.04H531.429C533.733 380.04 535.397 379.592 536.421 378.696C537.445 377.757 537.957 376.499 537.957 374.92C537.957 373.384 537.424 372.296 536.357 371.656C535.333 370.973 533.712 370.632 531.493 370.632H527.269V380.04ZM527.269 397.64H532.325C534.885 397.64 536.784 397.171 538.021 396.232C539.258 395.293 539.877 393.885 539.877 392.008C539.877 390.173 539.258 388.851 538.021 388.04C536.784 387.229 534.885 386.824 532.325 386.824H527.269V397.64ZM565.836 405.768C563.703 405.768 561.847 405.341 560.268 404.488C558.732 403.635 557.537 402.483 556.684 401.032C555.831 399.581 555.404 397.96 555.404 396.168C555.404 392.627 557.004 389.917 560.204 388.04C563.447 386.163 568.823 385.011 576.332 384.584C576.204 383.603 575.884 382.771 575.372 382.088C574.86 381.405 574.113 380.893 573.132 380.552C572.193 380.168 570.999 379.976 569.548 379.976C568.524 379.976 567.5 380.104 566.476 380.36C565.452 380.573 564.385 380.915 563.276 381.384C562.209 381.811 561.079 382.323 559.884 382.92L556.556 376.776C558.007 375.923 559.521 375.176 561.1 374.536C562.721 373.896 564.385 373.405 566.092 373.064C567.841 372.68 569.612 372.488 571.404 372.488C574.391 372.488 576.951 373.021 579.084 374.088C581.217 375.112 582.86 376.691 584.012 378.824C585.164 380.915 585.74 383.581 585.74 386.824V405H578.06L577.356 401.416H577.1C575.521 402.611 573.772 403.635 571.852 404.488C569.932 405.341 567.927 405.768 565.836 405.768ZM568.844 398.472C570.252 398.472 571.575 398.195 572.812 397.64C574.049 397.043 575.223 396.317 576.332 395.464V390.216C573.217 390.387 570.785 390.707 569.036 391.176C567.329 391.645 566.135 392.243 565.452 392.968C564.769 393.693 564.428 394.525 564.428 395.464C564.428 396.104 564.599 396.659 564.94 397.128C565.324 397.597 565.836 397.939 566.476 398.152C567.159 398.365 567.948 398.472 568.844 398.472ZM597.299 405V373.256H604.979L605.747 380.168H605.939C607.518 377.565 609.416 375.645 611.635 374.408C613.896 373.128 616.286 372.488 618.803 372.488C620.211 372.488 621.342 372.595 622.195 372.808C623.091 373.021 624.008 373.341 624.947 373.768L623.027 381.64C622.046 381.341 621.15 381.128 620.339 381C619.571 380.829 618.59 380.744 617.395 380.744C615.432 380.744 613.491 381.32 611.571 382.472C609.694 383.624 608.072 385.629 606.707 388.488V405H597.299ZM681.089 405V371.208H668.609V363.272H703.041V371.208H690.561V405H681.089ZM719.272 405.768C715.645 405.768 713.021 404.616 711.4 402.312C709.779 400.008 708.968 396.851 708.968 392.84V373.256H718.376V391.624C718.376 393.757 718.696 395.315 719.336 396.296C720.019 397.277 721.235 397.768 722.984 397.768C724.179 397.768 725.245 397.512 726.184 397C727.123 396.488 728.125 395.528 729.192 394.12V373.256H738.6V405H730.92L730.216 400.456H729.96C728.552 402.035 726.995 403.315 725.288 404.296C723.581 405.277 721.576 405.768 719.272 405.768ZM768.207 405.768C764.836 405.768 762.148 405.192 760.143 404.04C758.18 402.845 756.751 401.203 755.855 399.112C754.959 397.021 754.511 394.589 754.511 391.816V380.616H746.575V373.64L754.959 373.256L756.175 363.528H763.919V373.256H777.359V380.616H763.919V391.752C763.919 393.331 764.154 394.611 764.623 395.592C765.092 396.573 765.818 397.299 766.799 397.768C767.78 398.195 769.039 398.408 770.575 398.408C771.812 398.408 772.943 398.301 773.967 398.088C774.991 397.875 775.972 397.597 776.911 397.256L778.575 404.04C777.167 404.467 775.61 404.851 773.903 405.192C772.239 405.576 770.34 405.768 768.207 405.768ZM800.95 405.768C798.177 405.768 795.553 405.128 793.078 403.848C790.603 402.525 788.598 400.627 787.062 398.152C785.526 395.635 784.758 392.627 784.758 389.128C784.758 385.629 785.526 382.643 787.062 380.168C788.598 377.651 790.603 375.752 793.078 374.472C795.553 373.149 798.177 372.488 800.95 372.488C803.723 372.488 806.347 373.149 808.822 374.472C811.297 375.752 813.302 377.651 814.838 380.168C816.374 382.643 817.142 385.629 817.142 389.128C817.142 392.627 816.374 395.635 814.838 398.152C813.302 400.627 811.297 402.525 808.822 403.848C806.347 405.128 803.723 405.768 800.95 405.768ZM800.95 398.152C802.401 398.152 803.595 397.789 804.534 397.064C805.515 396.339 806.241 395.293 806.71 393.928C807.222 392.563 807.478 390.963 807.478 389.128C807.478 387.293 807.222 385.693 806.71 384.328C806.241 382.963 805.515 381.917 804.534 381.192C803.595 380.467 802.401 380.104 800.95 380.104C799.499 380.104 798.283 380.467 797.302 381.192C796.363 381.917 795.638 382.963 795.126 384.328C794.657 385.693 794.422 387.293 794.422 389.128C794.422 390.963 794.657 392.563 795.126 393.928C795.638 395.293 796.363 396.339 797.302 397.064C798.283 397.789 799.499 398.152 800.95 398.152ZM827.549 405V373.256H835.229L835.997 380.168H836.189C837.768 377.565 839.666 375.645 841.885 374.408C844.146 373.128 846.536 372.488 849.053 372.488C850.461 372.488 851.592 372.595 852.445 372.808C853.341 373.021 854.258 373.341 855.197 373.768L853.277 381.64C852.296 381.341 851.4 381.128 850.589 381C849.821 380.829 848.84 380.744 847.645 380.744C845.682 380.744 843.741 381.32 841.821 382.472C839.944 383.624 838.322 385.629 836.957 388.488V405H827.549ZM876.292 405V380.616H863.492V373.256H885.7V405H876.292ZM880.58 368.264C878.788 368.264 877.295 367.752 876.1 366.728C874.905 365.661 874.308 364.275 874.308 362.568C874.308 360.819 874.905 359.411 876.1 358.344C877.295 357.235 878.788 356.68 880.58 356.68C882.415 356.68 883.908 357.235 885.06 358.344C886.255 359.411 886.852 360.819 886.852 362.568C886.852 364.275 886.255 365.661 885.06 366.728C883.908 367.752 882.415 368.264 880.58 368.264ZM911.211 405.768C909.078 405.768 907.222 405.341 905.643 404.488C904.107 403.635 902.912 402.483 902.059 401.032C901.206 399.581 900.779 397.96 900.779 396.168C900.779 392.627 902.379 389.917 905.579 388.04C908.822 386.163 914.198 385.011 921.707 384.584C921.579 383.603 921.259 382.771 920.747 382.088C920.235 381.405 919.488 380.893 918.507 380.552C917.568 380.168 916.374 379.976 914.923 379.976C913.899 379.976 912.875 380.104 911.851 380.36C910.827 380.573 909.76 380.915 908.651 381.384C907.584 381.811 906.454 382.323 905.259 382.92L901.931 376.776C903.382 375.923 904.896 375.176 906.475 374.536C908.096 373.896 909.76 373.405 911.467 373.064C913.216 372.68 914.987 372.488 916.779 372.488C919.766 372.488 922.326 373.021 924.459 374.088C926.592 375.112 928.235 376.691 929.387 378.824C930.539 380.915 931.115 383.581 931.115 386.824V405H923.435L922.731 401.416H922.475C920.896 402.611 919.147 403.635 917.227 404.488C915.307 405.341 913.302 405.768 911.211 405.768ZM914.219 398.472C915.627 398.472 916.95 398.195 918.187 397.64C919.424 397.043 920.598 396.317 921.707 395.464V390.216C918.592 390.387 916.16 390.707 914.411 391.176C912.704 391.645 911.51 392.243 910.827 392.968C910.144 393.693 909.803 394.525 909.803 395.464C909.803 396.104 909.974 396.659 910.315 397.128C910.699 397.597 911.211 397.939 911.851 398.152C912.534 398.365 913.323 398.472 914.219 398.472ZM960.53 405.768C956.562 405.768 953.554 404.573 951.506 402.184C949.458 399.795 948.434 396.595 948.434 392.584V367.56H938.514V360.2H957.842V392.968C957.842 394.931 958.375 396.296 959.442 397.064C960.509 397.789 961.682 398.152 962.962 398.152C963.73 398.152 964.498 398.067 965.266 397.896C966.077 397.725 966.973 397.469 967.954 397.128L970.002 404.04C968.381 404.552 966.887 404.957 965.522 405.256C964.199 405.597 962.535 405.768 960.53 405.768Z" fill="white"/>
<path d="M148.694 573.468L131.668 590.488C128.803 593.352 124.158 593.352 121.293 590.488L117.784 586.981C114.92 584.117 114.92 579.473 117.785 576.61L134.811 559.59L148.694 573.468Z" fill="#F7DF1E"/>
<path d="M134.811 559.59L151.837 576.61C154.702 579.474 154.702 584.117 151.837 586.981L148.328 590.488C145.463 593.352 140.818 593.352 137.953 590.488L120.927 573.468L134.811 559.59Z" fill="#F7DF1E"/>
<path d="M121.544 574.083L104.518 557.064C101.653 554.2 101.653 549.557 104.518 546.693L108.027 543.185C110.892 540.322 115.537 540.322 118.402 543.185L135.428 560.205L121.544 574.083Z" fill="#264DE4"/>
<path d="M135.427 560.205L118.401 577.225C115.536 580.089 110.891 580.089 108.026 577.225L104.517 573.717C101.652 570.853 101.652 566.21 104.517 563.346L121.543 546.327L135.427 560.205Z" fill="#264DE4"/>
<path d="M148.079 546.327L165.105 563.347C167.97 566.211 167.97 570.854 165.105 573.718L161.596 577.225C158.731 580.089 154.086 580.089 151.221 577.225L134.195 560.206L148.079 546.327Z" fill="#E34C26"/>
<path d="M134.196 560.205L151.222 543.186C154.087 540.322 158.732 540.322 161.597 543.186L165.106 546.693C167.971 549.557 167.971 554.2 165.106 557.064L148.08 574.084L134.196 560.205Z" fill="#E34C26"/>
<path d="M135.427 556.896C133.258 556.896 131.5 558.653 131.5 560.821C131.5 562.989 133.258 564.747 135.427 564.747C137.595 564.747 139.354 562.989 139.354 560.821C139.354 558.653 137.595 556.896 135.427 556.896Z" fill="#53C1DE"/>
<path d="M199.399 589.967C196.899 589.967 194.557 589.562 192.374 588.753C190.191 587.943 188.324 587.01 186.775 585.954L188.782 583.103C190.261 584.159 191.898 585.004 193.694 585.638C195.49 586.271 197.568 586.588 199.927 586.588C202.11 586.588 203.73 586.183 204.786 585.374C205.878 584.564 206.424 583.631 206.424 582.575C206.424 582.082 206.318 581.625 206.107 581.202C205.931 580.78 205.561 580.375 204.998 579.988C204.469 579.601 203.677 579.231 202.621 578.879C201.564 578.527 200.156 578.175 198.395 577.823C195.05 577.119 192.532 576.169 190.842 574.972C189.187 573.775 188.359 572.226 188.359 570.326C188.359 568.249 189.257 566.524 191.053 565.151C192.849 563.743 195.508 563.039 199.029 563.039C201.001 563.039 202.903 563.374 204.734 564.042C206.565 564.676 208.114 565.433 209.382 566.313L207.269 569.111C206.107 568.266 204.786 567.615 203.307 567.158C201.829 566.665 200.279 566.418 198.659 566.418C197.18 566.418 196.001 566.594 195.12 566.946C194.275 567.263 193.659 567.703 193.272 568.266C192.92 568.83 192.744 569.446 192.744 570.114C192.744 571.206 193.325 572.068 194.487 572.702C195.684 573.3 197.585 573.863 200.191 574.391C203.043 574.99 205.227 575.658 206.741 576.398C208.29 577.137 209.347 577.982 209.91 578.932C210.509 579.882 210.808 581.009 210.808 582.311C210.808 583.719 210.368 585.004 209.487 586.166C208.607 587.292 207.322 588.207 205.632 588.911C203.941 589.615 201.864 589.967 199.399 589.967ZM232.971 589.967C230.295 589.967 227.883 589.439 225.735 588.383C223.622 587.327 221.95 585.796 220.717 583.79C219.52 581.783 218.921 579.372 218.921 576.556C218.921 573.67 219.573 571.223 220.876 569.217C222.179 567.21 223.904 565.679 226.052 564.623C228.235 563.567 230.63 563.039 233.236 563.039C235.348 563.039 237.162 563.409 238.677 564.148C240.226 564.887 241.529 565.767 242.585 566.788L240.42 569.586C239.363 568.671 238.272 567.95 237.144 567.422C236.017 566.894 234.767 566.63 233.394 566.63C231.422 566.63 229.679 567.052 228.165 567.897C226.651 568.706 225.471 569.868 224.626 571.382C223.816 572.86 223.411 574.585 223.411 576.556C223.411 578.492 223.816 580.199 224.626 581.678C225.436 583.156 226.58 584.318 228.059 585.162C229.573 585.972 231.316 586.377 233.288 586.377C234.873 586.377 236.317 586.06 237.62 585.426C238.958 584.793 240.155 584.036 241.212 583.156L243.166 585.954C241.758 587.222 240.173 588.207 238.412 588.911C236.686 589.615 234.873 589.967 232.971 589.967ZM254.079 589.334V563.673H257.671L258.041 569.745H258.199C259.537 567.668 261.192 566.031 263.164 564.834C265.136 563.638 267.302 563.039 269.661 563.039C270.612 563.039 271.492 563.127 272.302 563.303C273.147 563.444 273.957 563.708 274.732 564.095L273.728 567.844C272.848 567.527 272.091 567.298 271.457 567.158C270.823 567.017 269.996 566.946 268.974 566.946C267.038 566.946 265.171 567.51 263.376 568.636C261.615 569.727 259.96 571.61 258.411 574.286V589.334H254.079ZM291.033 589.967C289.448 589.967 287.987 589.686 286.649 589.122C285.31 588.524 284.254 587.679 283.479 586.588C282.705 585.497 282.317 584.194 282.317 582.681C282.317 579.794 283.761 577.612 286.649 576.134C289.536 574.62 294.29 573.599 300.91 573.071C300.875 571.91 300.628 570.836 300.17 569.85C299.748 568.865 299.044 568.09 298.058 567.527C297.072 566.929 295.751 566.63 294.096 566.63C293.005 566.63 291.913 566.788 290.821 567.105C289.765 567.386 288.744 567.774 287.758 568.266C286.807 568.724 285.927 569.199 285.117 569.692L283.427 566.735C284.272 566.172 285.293 565.609 286.49 565.046C287.723 564.447 289.043 563.972 290.452 563.62C291.86 563.233 293.321 563.039 294.836 563.039C297.195 563.039 299.132 563.479 300.646 564.359C302.195 565.239 303.34 566.471 304.079 568.055C304.854 569.604 305.241 571.452 305.241 573.599V589.334H301.702L301.332 585.849H301.174C299.765 586.975 298.181 587.943 296.42 588.753C294.66 589.562 292.864 589.967 291.033 589.967ZM292.195 586.482C293.674 586.482 295.135 586.148 296.579 585.479C298.022 584.81 299.466 583.878 300.91 582.681V575.922C297.248 576.239 294.36 576.679 292.247 577.242C290.17 577.806 288.691 578.527 287.811 579.407C286.965 580.252 286.543 581.238 286.543 582.364C286.543 583.314 286.807 584.106 287.335 584.74C287.863 585.338 288.55 585.778 289.395 586.06C290.275 586.342 291.209 586.482 292.195 586.482ZM330.52 589.967C328.02 589.967 326.048 589.527 324.604 588.647C323.16 587.732 322.121 586.482 321.488 584.898C320.889 583.314 320.59 581.466 320.59 579.354V567.21H313.353V563.937L320.748 563.673L321.329 555.436H324.921V563.673H337.545V567.21H324.921V579.407C324.921 580.921 325.114 582.206 325.502 583.262C325.889 584.318 326.558 585.11 327.509 585.638C328.46 586.166 329.763 586.43 331.418 586.43C332.65 586.43 333.759 586.324 334.745 586.113C335.731 585.902 336.682 585.62 337.598 585.268L338.548 588.436C337.386 588.858 336.154 589.21 334.851 589.492C333.583 589.809 332.139 589.967 330.52 589.967ZM359.656 589.967C356.979 589.967 354.567 589.439 352.419 588.383C350.307 587.327 348.634 585.796 347.401 583.79C346.204 581.783 345.606 579.372 345.606 576.556C345.606 573.67 346.257 571.223 347.56 569.217C348.863 567.21 350.588 565.679 352.736 564.623C354.919 563.567 357.314 563.039 359.92 563.039C362.032 563.039 363.846 563.409 365.36 564.148C366.91 564.887 368.212 565.767 369.269 566.788L367.103 569.586C366.047 568.671 364.955 567.95 363.828 567.422C362.702 566.894 361.451 566.63 360.078 566.63C358.106 566.63 356.363 567.052 354.849 567.897C353.335 568.706 352.155 569.868 351.31 571.382C350.5 572.86 350.095 574.585 350.095 576.556C350.095 578.492 350.5 580.199 351.31 581.678C352.12 583.156 353.264 584.318 354.743 585.162C356.258 585.972 358.001 586.377 359.973 586.377C361.557 586.377 363.001 586.06 364.304 585.426C365.642 584.793 366.839 584.036 367.895 583.156L369.85 585.954C368.441 587.222 366.857 588.207 365.096 588.911C363.371 589.615 361.557 589.967 359.656 589.967ZM377.963 589.334V551.74H382.295V561.983L382.031 568.055H382.189C383.492 566.647 384.918 565.468 386.467 564.518C388.017 563.532 389.795 563.039 391.802 563.039C394.831 563.039 397.067 563.919 398.51 565.679C399.954 567.439 400.676 570.009 400.676 573.388V589.334H396.345V573.969C396.345 571.54 395.887 569.745 394.971 568.583C394.056 567.386 392.542 566.788 390.429 566.788C388.915 566.788 387.559 567.175 386.362 567.95C385.165 568.724 383.809 569.886 382.295 571.434V589.334H377.963ZM418.35 589.334V558.393H406.941V554.697H434.196V558.393H422.787V589.334H418.35ZM452.24 589.967C449.986 589.967 447.891 589.439 445.954 588.383C444.053 587.327 442.503 585.796 441.306 583.79C440.144 581.783 439.563 579.372 439.563 576.556C439.563 573.67 440.144 571.223 441.306 569.217C442.503 567.21 444.053 565.679 445.954 564.623C447.891 563.567 449.986 563.039 452.24 563.039C454.493 563.039 456.571 563.567 458.472 564.623C460.409 565.679 461.958 567.21 463.121 569.217C464.318 571.223 464.916 573.67 464.916 576.556C464.916 579.372 464.318 581.783 463.121 583.79C461.958 585.796 460.409 587.327 458.472 588.383C456.571 589.439 454.493 589.967 452.24 589.967ZM452.24 586.377C453.895 586.377 455.338 585.972 456.571 585.162C457.803 584.318 458.754 583.156 459.423 581.678C460.092 580.199 460.427 578.492 460.427 576.556C460.427 574.585 460.092 572.86 459.423 571.382C458.754 569.868 457.803 568.706 456.571 567.897C455.338 567.052 453.895 566.63 452.24 566.63C450.585 566.63 449.141 567.052 447.908 567.897C446.711 568.706 445.76 569.868 445.056 571.382C444.387 572.86 444.053 574.585 444.053 576.556C444.053 578.492 444.387 580.199 445.056 581.678C445.76 583.156 446.711 584.318 447.908 585.162C449.141 585.972 450.585 586.377 452.24 586.377ZM471.762 589.334V554.908H483.964C486.393 554.908 488.612 555.242 490.619 555.911C492.626 556.545 494.228 557.654 495.426 559.238C496.658 560.786 497.274 562.916 497.274 565.626C497.274 568.266 496.658 570.414 495.426 572.068C494.228 573.722 492.626 574.954 490.619 575.764C488.612 576.538 486.393 576.926 483.964 576.926H479.527V589.334H471.762ZM479.527 570.748H483.33C485.372 570.748 486.922 570.326 487.978 569.481C489.07 568.601 489.615 567.316 489.615 565.626C489.615 563.937 489.07 562.758 487.978 562.089C486.922 561.42 485.372 561.086 483.33 561.086H479.527V570.748ZM482.538 574.919L487.925 569.903L498.912 589.334H490.196L482.538 574.919ZM517.167 589.967C514.455 589.967 511.99 589.439 509.772 588.383C507.589 587.292 505.846 585.726 504.543 583.684C503.275 581.607 502.641 579.126 502.641 576.239C502.641 573.388 503.293 570.942 504.596 568.9C505.899 566.823 507.589 565.239 509.666 564.148C511.744 563.057 513.945 562.511 516.269 562.511C518.98 562.511 521.252 563.074 523.083 564.201C524.914 565.292 526.287 566.788 527.203 568.689C528.153 570.554 528.629 572.684 528.629 575.078C528.629 575.782 528.576 576.468 528.47 577.137C528.4 577.77 528.329 578.246 528.259 578.562H508.399V573.335H523.03L521.815 574.814C521.815 572.702 521.357 571.118 520.442 570.062C519.561 568.97 518.258 568.425 516.533 568.425C515.265 568.425 514.156 568.706 513.205 569.27C512.255 569.833 511.515 570.695 510.987 571.857C510.459 573.018 510.195 574.479 510.195 576.239C510.195 578.034 510.512 579.513 511.145 580.674C511.779 581.801 512.695 582.646 513.892 583.209C515.089 583.772 516.533 584.054 518.223 584.054C519.42 584.054 520.547 583.895 521.604 583.578C522.695 583.262 523.822 582.804 524.984 582.206L527.572 586.905C526.058 587.855 524.385 588.612 522.554 589.175C520.723 589.703 518.927 589.967 517.167 589.967ZM543.239 589.967C541.479 589.967 539.947 589.615 538.644 588.911C537.376 588.207 536.39 587.257 535.686 586.06C534.982 584.863 534.63 583.526 534.63 582.047C534.63 579.126 535.95 576.89 538.591 575.342C541.267 573.793 545.704 572.842 551.902 572.49C551.796 571.681 551.532 570.994 551.109 570.431C550.687 569.868 550.071 569.446 549.261 569.164C548.486 568.847 547.5 568.689 546.303 568.689C545.458 568.689 544.612 568.794 543.767 569.006C542.922 569.182 542.042 569.463 541.126 569.85C540.246 570.202 539.313 570.625 538.327 571.118L535.58 566.049C536.778 565.345 538.028 564.729 539.331 564.201C540.669 563.673 542.042 563.268 543.45 562.986C544.894 562.67 546.356 562.511 547.834 562.511C550.299 562.511 552.412 562.951 554.173 563.831C555.934 564.676 557.289 565.978 558.24 567.738C559.191 569.463 559.666 571.663 559.666 574.338V589.334H553.328L552.747 586.377H552.535C551.233 587.362 549.789 588.207 548.204 588.911C546.62 589.615 544.965 589.967 543.239 589.967ZM545.722 583.948C546.884 583.948 547.975 583.719 548.997 583.262C550.018 582.769 550.986 582.17 551.902 581.466V577.137C549.331 577.278 547.324 577.542 545.88 577.929C544.472 578.316 543.486 578.809 542.922 579.407C542.359 580.006 542.077 580.692 542.077 581.466C542.077 581.994 542.218 582.452 542.5 582.839C542.817 583.226 543.239 583.508 543.767 583.684C544.331 583.86 544.982 583.948 545.722 583.948ZM581.196 589.967C578.449 589.967 575.967 589.439 573.748 588.383C571.565 587.292 569.822 585.726 568.519 583.684C567.252 581.607 566.618 579.126 566.618 576.239C566.618 573.353 567.322 570.889 568.731 568.847C570.139 566.77 571.988 565.204 574.277 564.148C576.601 563.057 579.101 562.511 581.777 562.511C583.855 562.511 585.738 562.846 587.429 563.514C589.119 564.148 590.51 564.993 591.601 566.049L588.01 570.854C586.989 570.15 586.003 569.639 585.052 569.322C584.136 568.97 583.186 568.794 582.2 568.794C580.721 568.794 579.4 569.094 578.238 569.692C577.076 570.29 576.178 571.153 575.544 572.279C574.91 573.406 574.594 574.726 574.594 576.239C574.594 577.753 574.893 579.073 575.491 580.199C576.125 581.326 576.988 582.188 578.08 582.786C579.206 583.385 580.492 583.684 581.935 583.684C583.309 583.684 584.559 583.438 585.686 582.945C586.848 582.452 587.904 581.871 588.855 581.202L591.971 586.113C590.422 587.415 588.679 588.383 586.742 589.017C584.841 589.65 582.992 589.967 581.196 589.967ZM615.244 589.967C612.462 589.967 610.244 589.492 608.589 588.542C606.969 587.556 605.789 586.201 605.05 584.476C604.31 582.751 603.941 580.745 603.941 578.457V569.217H597.391V563.462L604.31 563.145L605.314 555.119H611.705V563.145H622.797V569.217H611.705V578.404C611.705 579.706 611.899 580.762 612.286 581.572C612.674 582.382 613.272 582.98 614.082 583.367C614.892 583.719 615.931 583.895 617.198 583.895C618.22 583.895 619.153 583.807 619.998 583.631C620.843 583.455 621.653 583.226 622.428 582.945L623.801 588.542C622.639 588.894 621.354 589.21 619.945 589.492C618.572 589.809 617.005 589.967 615.244 589.967Z" fill="black"/>
<defs>
<linearGradient id="paint0_linear_84_2" x1="592.5" y1="0" x2="592.5" y2="760" gradientUnits="userSpaceOnUse">
<stop/>
<stop offset="1" stop-color="#264DE4"/>
</linearGradient>
</defs>
</svg>
